<svg viewBox="216 394.848 673.92 347.76" xmlns:xlink="http://www.w3.org/1999/xlink" xmlns="http://www.w3.org/2000/svg" data-name="Layer 1" id="Layer_1" style="max-height: 500px" width="673.92" height="347.76"><defs><style>.cls-1{fill:url(#linear-gradient);}.cls-2{fill:url(#linear-gradient-2);}.cls-3{fill:url(#linear-gradient-3);}.cls-4{fill:url(#linear-gradient-4);}.cls-5{fill:#262630;}.cls-6{fill:#3c3a8c;}</style><linearGradient gradientUnits="userSpaceOnUse" y2="621.33" x2="421.18" y1="621.33" x1="330.46" id="linear-gradient"><stop stop-color="#5e59c3" offset="0"/><stop stop-color="#3c3a8c" offset="1"/></linearGradient><linearGradient xlink:href="#linear-gradient" y2="531.07" x2="314.76" y1="531.07" x1="408.12" id="linear-gradient-2"/><linearGradient xlink:href="#linear-gradient" y2="459.45" x2="413.88" y1="459.45" x1="308.88" id="linear-gradient-3"/><linearGradient gradientUnits="userSpaceOnUse" y2="622.83" x2="327.95" y1="499.39" x1="238.62" id="linear-gradient-4"><stop stop-color="#c0bae6" offset="0"/><stop stop-color="#978ada" offset="1"/></linearGradient></defs><title>Light Varient</title><polygon points="421.18 637.74 330.46 637.74 330.46 613.38 357.36 604.92 421.18 637.74" class="cls-1"/><polygon points="421.18 510.9 421.18 637.74 357.36 604.92 330.46 591.09 330.46 507.78 252.97 424.4 389.28 494.49 421.18 510.9" class="cls-2"/><polygon points="421.18 424.4 421.18 484.46 389.28 494.49 252.97 424.4 421.18 424.4" class="cls-3"/><polygon points="330.46 507.78 330.46 721.11 252.97 637.74 252.97 424.4 330.46 507.78" class="cls-4"/><path d="M460,535.36V456.44h10.3v11.95a22.49,22.49,0,0,1,8.88-9.5,26,26,0,0,1,13.44-3.7q13.08-.18,21.46,8.56t8.38,22.64q0,14.63-8.44,23.54t-21.52,8.91a25.26,25.26,0,0,1-13.47-3.76,20.83,20.83,0,0,1-8.73-10.51v30.79Zm10.3-49.5q0,11.07,5.71,17.73t15.31,6.66a19.1,19.1,0,0,0,15.07-6.36q5.88-6.48,5.89-17.38,0-10.12-6.1-16.61a19.26,19.26,0,0,0-14.86-6.36,20,20,0,0,0-15.16,6.36Q470.34,476.22,470.34,485.86Z" class="cls-5"/><path d="M533.16,473.78a17.79,17.79,0,0,1,1.77-8.23,13.2,13.2,0,0,1,5-5.35,23.86,23.86,0,0,1,7-2.82,40.33,40.33,0,0,1,8.56-.94v8.11q-6.45.18-9.3,3c-1.89,1.87-2.84,4.55-2.84,8l-.12,42.33h-10.3Z" class="cls-5"/><path d="M590.11,519.07a34.18,34.18,0,0,1-16.1-3.81A29.09,29.09,0,0,1,562.35,504,32.77,32.77,0,0,1,558,487a32,32,0,0,1,4.41-16.82A29.43,29.43,0,0,1,574.07,459a34.06,34.06,0,0,1,16-3.82A33.49,33.49,0,0,1,606,459a29.53,29.53,0,0,1,11.63,11.19A32.05,32.05,0,0,1,622,487,33,33,0,0,1,617.67,504a29.06,29.06,0,0,1-11.57,11.22A33.76,33.76,0,0,1,590.11,519.07ZM568.27,487q0,10.59,6.15,17.22a21.77,21.77,0,0,0,31.29,0q6.13-6.63,6.13-17.22,0-10.12-6.27-16.85a21.34,21.34,0,0,0-31.06,0Q568.27,476.8,568.27,487Z" class="cls-5"/><path d="M661.57,519.25q-13,.36-21.49-8.52t-8.46-22.92q0-14.61,8.46-23.62t21.49-8.88a25.16,25.16,0,0,1,13.5,3.76,21.38,21.38,0,0,1,8.82,10.57V437.73h10.19v80.16H683.89V505.75a23.18,23.18,0,0,1-8.91,9.57A26.24,26.24,0,0,1,661.57,519.25Zm-19.65-31.67q0,10.19,6.12,16.72a19.28,19.28,0,0,0,14.89,6.43,19.74,19.74,0,0,0,15.13-6.43q5.84-6.36,5.83-16,0-11.13-5.65-17.76t-15.31-6.69a19.17,19.17,0,0,0-15.09,6.36Q641.92,476.68,641.92,487.58Z" class="cls-5"/><path d="M759.32,456.44v61.45H749V507.12a16.42,16.42,0,0,1-5.09,6.63,25.07,25.07,0,0,1-15.87,5.5q-22.44-.35-22.44-27.17V456.44h10.3v35.64q0,9.18,3.65,13.79T731,510.49A17.64,17.64,0,0,0,749,492.43v-36Z" class="cls-5"/><path d="M800.88,519.07a32.32,32.32,0,0,1-15.51-3.81,29.37,29.37,0,0,1-11.46-11.19,32.54,32.54,0,0,1-4.35-16.85,33.84,33.84,0,0,1,2.52-13.11,30.33,30.33,0,0,1,6.75-10.21,31.18,31.18,0,0,1,21.82-8.83,28.91,28.91,0,0,1,18.26,6,27.64,27.64,0,0,1,10.1,15.6H818.82a18.65,18.65,0,0,0-6.69-9.62,18.38,18.38,0,0,0-11.48-3.76,18.85,18.85,0,0,0-14.78,6.9,25,25,0,0,0-6,17q0,10.06,6,16.79a19.4,19.4,0,0,0,14.78,6.83A18.18,18.18,0,0,0,818.82,498H829a27.75,27.75,0,0,1-10.19,15.15A28.57,28.57,0,0,1,800.88,519.07Z" class="cls-5"/><path d="M868.55,517.89a35.65,35.65,0,0,1-8.61-.41,21.29,21.29,0,0,1-7-2.58,12.67,12.67,0,0,1-4.91-5.45,19.1,19.1,0,0,1-1.78-8.55l-.11-31.38h-9.24v-8.11h9.24V437.73h10.06l.12,23.68h9.83v8.11H856.3l.12,29.48c0,4,1,6.9,3,8.62s5,2.4,9.17,2Z" class="cls-5"/><path d="M502,573.19a26.84,26.84,0,0,0-7.46-3.52A68.19,68.19,0,0,0,484,567.45q-8.29-1.12-8.29-6.81a4.27,4.27,0,0,1,1.72-3.58,7.3,7.3,0,0,1,4.61-1.34q4.15,0,6.22,2.22t2,7.55l16.17.12q.35-11.07-6.31-17.08T482,542.34a29.72,29.72,0,0,0-8.7,1,25,25,0,0,0-7.31,3.29,15.45,15.45,0,0,0-5.12,5.74,17.07,17.07,0,0,0-1.9,8.14q0,9.3,5.69,13.85t16.63,6c3.87.52,6.52,1.31,7.94,2.4a5.39,5.39,0,0,1,2.13,4.53,4.61,4.61,0,0,1-2,4.06,9.06,9.06,0,0,1-5.72,1.15,7.39,7.39,0,0,1-5.59-2.64,10.2,10.2,0,0,1-1.93-6.6H459.33a23.67,23.67,0,0,0,1.83,10.16,17.26,17.26,0,0,0,5.45,7,25.47,25.47,0,0,0,7.82,3.94,34.15,34.15,0,0,0,9.29,1.45q11.55.18,18-4.91t6.45-14.45a18.86,18.86,0,0,0-1.48-7.87A13.13,13.13,0,0,0,502,573.19Z" class="cls-6"/><path d="M548.43,542.23a22.48,22.48,0,0,0-8.17,1.56,16.44,16.44,0,0,0-6.16,3.88V524.76H517.41v80.16H534.1V572.66q0-8.42,3.2-12.26t9.42-3.85a9.64,9.64,0,0,1,8.25,4q2.94,4,2.94,12v32.38h16.87V572.54q0-13.62-6.84-22T548.43,542.23Z" class="cls-6"/><path d="M630.91,549.63a17,17,0,0,0-7.88-5.57,29.75,29.75,0,0,0-9.95-1.72q-13.73-.06-22,9.06t-8.29,23.21a38.05,38.05,0,0,0,2.07,12.7,30.83,30.83,0,0,0,5.86,10.21,25.32,25.32,0,0,0,9.54,6.69A29.81,29.81,0,0,0,613,606.29,31.18,31.18,0,0,0,623.12,604a20.65,20.65,0,0,0,7.79-5.36v6.27h16.87V543.47H630.91Zm-4.27,37.71a14.55,14.55,0,0,1-11.25,5.21,13.94,13.94,0,0,1-11.33-4.88c-3-3.38-4.47-7.85-4.47-13.42q0-7.82,4.26-12.9a14.08,14.08,0,0,1,11.54-5q7.29.06,11.4,5t4.12,12.7Q630.91,582.3,626.64,587.34Z" class="cls-6"/><path d="M761.12,560.25a28.89,28.89,0,0,0-10.92-13.41A30.7,30.7,0,0,0,732.94,542a31.57,31.57,0,0,0-12.1,2.34,29.34,29.34,0,0,0-16.67,16.87,35.62,35.62,0,0,0-2.49,13.41A32.72,32.72,0,0,0,704.35,588a27.56,27.56,0,0,0,7.19,10,33.35,33.35,0,0,0,10.36,6,35.53,35.53,0,0,0,12.29,2.13,28.24,28.24,0,0,0,18.32-6.46,33.62,33.62,0,0,0,11.1-16.34H746.68q-3.25,9.66-13.38,9.48A15.23,15.23,0,0,1,723.2,589a14,14,0,0,1-4.7-9.45H764A42.58,42.58,0,0,0,761.12,560.25Zm-42.21,6a15.63,15.63,0,0,1,5-7.87,13.73,13.73,0,0,1,9.12-3.08,14.91,14.91,0,0,1,9.56,3.34,14.2,14.2,0,0,1,5.24,7.61Z" class="cls-6"/><path d="M707.1,547.47l-23.66-13.66a1.72,1.72,0,0,0-2.58,1.49v8.22c-1.55.07-3.05.18-4.49.36a37,37,0,0,0-7.4,1.75,20.88,20.88,0,0,0-6.24,3.32,14.9,14.9,0,0,0-4.18,5.41,18,18,0,0,0-1.6,7.76v42.8h16.82V565.26c0-2.92.83-5,2.49-6.34a10.3,10.3,0,0,1,4.6-1.79v5.49a1.72,1.72,0,0,0,2.58,1.5l23.66-13.66A1.73,1.73,0,0,0,707.1,547.47Z" class="cls-6"/></svg>