<svg viewBox="213.250968 409.81032 663.12 321.84" xmlns:xlink="http://www.w3.org/1999/xlink" xmlns="http://www.w3.org/2000/svg" data-name="Layer 1" id="Layer_1" style="max-height: 500px" width="663.12" height="321.84"><defs><style>.cls-1{fill:url(#linear-gradient);}.cls-2{fill:url(#linear-gradient-2);}.cls-3{fill:url(#linear-gradient-3);}.cls-4{fill:url(#linear-gradient-4);}.cls-5{fill:#aaa8e5;}.cls-6{fill:#fff;}</style><linearGradient gradientUnits="userSpaceOnUse" y2="621.33" x2="414.44" y1="621.33" x1="323.71" id="linear-gradient"><stop stop-color="#aaa8e5" offset="0.01"/><stop stop-color="#7773c7" offset="1"/></linearGradient><linearGradient xlink:href="#linear-gradient" y2="531.07" x2="308.01" y1="531.07" x1="401.37" id="linear-gradient-2"/><linearGradient xlink:href="#linear-gradient" y2="459.45" x2="407.13" y1="459.45" x1="302.13" id="linear-gradient-3"/><linearGradient gradientUnits="userSpaceOnUse" y2="622.83" x2="321.2" y1="499.39" x1="231.87" id="linear-gradient-4"><stop stop-color="#fff" offset="0"/><stop stop-color="#fff" offset="1"/></linearGradient></defs><title>Dark Varient</title><polygon points="414.44 637.74 323.71 637.74 323.71 613.38 350.62 604.92 414.44 637.74" class="cls-1"/><polygon points="414.44 510.9 414.44 637.74 350.62 604.92 323.71 591.09 323.71 507.78 246.22 424.4 382.53 494.49 414.44 510.9" class="cls-2"/><polygon points="414.44 424.4 414.44 484.46 382.53 494.49 246.22 424.4 414.44 424.4" class="cls-3"/><polygon points="323.71 507.78 323.71 721.11 246.22 637.74 246.22 424.4 323.71 507.78" class="cls-4"/><path d="M453.29,535.36V456.44h10.3v11.95a22.55,22.55,0,0,1,8.88-9.5,26,26,0,0,1,13.44-3.7q13.09-.18,21.47,8.56t8.37,22.64q0,14.63-8.43,23.54t-21.53,8.91a25.2,25.2,0,0,1-13.46-3.76,20.8,20.8,0,0,1-8.74-10.51v30.79Zm10.3-49.5q0,11.07,5.72,17.73t15.3,6.66a19.1,19.1,0,0,0,15.07-6.36q5.9-6.48,5.89-17.38,0-10.12-6.1-16.61a19.24,19.24,0,0,0-14.86-6.36,20,20,0,0,0-15.16,6.36Q463.6,476.22,463.59,485.86Z" class="cls-5"/><path d="M526.41,473.78a17.66,17.66,0,0,1,1.78-8.23,13.11,13.11,0,0,1,5-5.35,23.86,23.86,0,0,1,7-2.82,40.33,40.33,0,0,1,8.56-.94v8.11q-6.45.18-9.3,3c-1.89,1.87-2.84,4.55-2.84,8l-.12,42.33h-10.3Z" class="cls-5"/><path d="M583.36,519.07a34.21,34.21,0,0,1-16.1-3.81A29.16,29.16,0,0,1,555.6,504,32.86,32.86,0,0,1,551.22,487a32,32,0,0,1,4.41-16.82A29.47,29.47,0,0,1,567.32,459a34.09,34.09,0,0,1,16-3.82A33.46,33.46,0,0,1,599.23,459a29.49,29.49,0,0,1,11.64,11.19A32.05,32.05,0,0,1,615.28,487,33,33,0,0,1,610.93,504a29.09,29.09,0,0,1-11.58,11.22A33.74,33.74,0,0,1,583.36,519.07ZM561.52,487q0,10.59,6.16,17.22a21.77,21.77,0,0,0,31.29,0q6.12-6.63,6.12-17.22,0-10.12-6.27-16.85a21.34,21.34,0,0,0-31.06,0Q561.52,476.8,561.52,487Z" class="cls-5"/><path d="M654.83,519.25q-13,.36-21.5-8.52t-8.46-22.92q0-14.61,8.46-23.62t21.5-8.88a25.15,25.15,0,0,1,13.49,3.76,21.45,21.45,0,0,1,8.83,10.57V437.73h10.18v80.16H677.15V505.75a23.31,23.31,0,0,1-8.91,9.57A26.3,26.3,0,0,1,654.83,519.25Zm-19.66-31.67q0,10.19,6.13,16.72a19.26,19.26,0,0,0,14.89,6.43,19.72,19.72,0,0,0,15.12-6.43q5.84-6.36,5.84-16,0-11.13-5.66-17.76t-15.3-6.69a19.19,19.19,0,0,0-15.1,6.36Q635.17,476.68,635.17,487.58Z" class="cls-5"/><path d="M752.57,456.44v61.45H742.21V507.12a16.34,16.34,0,0,1-5.09,6.63,25.07,25.07,0,0,1-15.87,5.5q-22.44-.35-22.43-27.17V456.44h10.3v35.64q0,9.18,3.64,13.79t11.51,4.62a17.64,17.64,0,0,0,17.94-18.06v-36Z" class="cls-5"/><path d="M794.14,519.07a32.33,32.33,0,0,1-15.52-3.81,29.35,29.35,0,0,1-11.45-11.19,32.54,32.54,0,0,1-4.35-16.85,33.83,33.83,0,0,1,2.51-13.11,30.33,30.33,0,0,1,6.75-10.21,31.18,31.18,0,0,1,21.82-8.83,28.91,28.91,0,0,1,18.26,6,27.64,27.64,0,0,1,10.1,15.6H812.07a18.65,18.65,0,0,0-6.69-9.62,18.38,18.38,0,0,0-11.48-3.76,18.83,18.83,0,0,0-14.77,6.9,25,25,0,0,0-6,17q0,10.06,6,16.79a19.38,19.38,0,0,0,14.77,6.83A18.18,18.18,0,0,0,812.07,498h10.19a27.7,27.7,0,0,1-10.19,15.15A28.56,28.56,0,0,1,794.14,519.07Z" class="cls-5"/><path d="M861.81,517.89a35.7,35.7,0,0,1-8.62-.41,21.23,21.23,0,0,1-7-2.58,12.69,12.69,0,0,1-4.92-5.45,19.1,19.1,0,0,1-1.77-8.55l-.12-31.38h-9.24v-8.11h9.24V437.73h10.06l.12,23.68h9.83v8.11h-9.83l.12,29.48q0,6,3,8.62t9.18,2Z" class="cls-5"/><path d="M495.3,573.19a27,27,0,0,0-7.46-3.52,68.34,68.34,0,0,0-10.63-2.22q-8.29-1.12-8.29-6.81a4.27,4.27,0,0,1,1.72-3.58,7.32,7.32,0,0,1,4.62-1.34q4.14,0,6.21,2.22t2,7.55l16.16.12q.36-11.07-6.31-17.08t-18.08-6.19a29.78,29.78,0,0,0-8.71,1,25,25,0,0,0-7.31,3.29,15.45,15.45,0,0,0-5.12,5.74,17.18,17.18,0,0,0-1.89,8.14q0,9.3,5.68,13.85t16.64,6c3.86.52,6.51,1.31,7.93,2.4a5.39,5.39,0,0,1,2.13,4.53,4.61,4.61,0,0,1-2,4.06,9,9,0,0,1-5.72,1.15,7.41,7.41,0,0,1-5.59-2.64,10.25,10.25,0,0,1-1.92-6.6H452.58a23.52,23.52,0,0,0,1.84,10.16,17.15,17.15,0,0,0,5.44,7,25.58,25.58,0,0,0,7.82,3.94,34.15,34.15,0,0,0,9.29,1.45q11.55.18,18-4.91t6.46-14.45a18.86,18.86,0,0,0-1.49-7.87A13.17,13.17,0,0,0,495.3,573.19Z" class="cls-6"/><path d="M541.68,542.23a22.48,22.48,0,0,0-8.17,1.56,16.31,16.31,0,0,0-6.15,3.88V524.76h-16.7v80.16h16.7V572.66q0-8.42,3.19-12.26c2.14-2.56,5.27-3.85,9.42-3.85a9.67,9.67,0,0,1,8.26,4q2.92,4,2.93,12v32.38H568V572.54q0-13.62-6.84-22T541.68,542.23Z" class="cls-6"/><path d="M624.16,549.63a17,17,0,0,0-7.88-5.57,29.7,29.7,0,0,0-9.94-1.72q-13.74-.06-22,9.06T576,574.61a37.8,37.8,0,0,0,2.08,12.7A30.66,30.66,0,0,0,584,597.52a25.21,25.21,0,0,0,9.53,6.69,29.81,29.81,0,0,0,12.73,2.08A31.18,31.18,0,0,0,616.37,604a20.65,20.65,0,0,0,7.79-5.36v6.27H641V543.47H624.16Zm-4.27,37.71a14.55,14.55,0,0,1-11.24,5.21,14,14,0,0,1-11.34-4.88q-4.47-5.07-4.47-13.42,0-7.82,4.26-12.9t11.55-5q7.27.06,11.39,5t4.12,12.7Q624.16,582.3,619.89,587.34Z" class="cls-6"/><path d="M754.38,560.25a28.91,28.91,0,0,0-10.93-13.41A30.67,30.67,0,0,0,726.2,542a31.62,31.62,0,0,0-12.11,2.34,29.34,29.34,0,0,0-16.67,16.87,35.62,35.62,0,0,0-2.49,13.41A32.72,32.72,0,0,0,697.6,588a27.68,27.68,0,0,0,7.19,10,33.47,33.47,0,0,0,10.36,6,35.57,35.57,0,0,0,12.29,2.13,28.23,28.23,0,0,0,18.32-6.46,33.62,33.62,0,0,0,11.1-16.34H739.93q-3.25,9.66-13.38,9.48A15.18,15.18,0,0,1,716.46,589a14,14,0,0,1-4.71-9.45h45.47A42.72,42.72,0,0,0,754.38,560.25Zm-42.22,6a15.59,15.59,0,0,1,5-7.87,13.69,13.69,0,0,1,9.11-3.08,15,15,0,0,1,9.57,3.34,14.31,14.31,0,0,1,5.24,7.61Z" class="cls-6"/><path d="M699.35,546.89l-21.65-12.5a2.39,2.39,0,0,0-3.59,2.07v7.07c-1.55.07-3.05.17-4.48.35a36.65,36.65,0,0,0-7.4,1.75A20.94,20.94,0,0,0,656,549a14.77,14.77,0,0,0-4.17,5.41,17.88,17.88,0,0,0-1.6,7.76v42.8H667V565.26c0-2.92.83-5,2.49-6.34a10.3,10.3,0,0,1,4.6-1.79v4.34a2.39,2.39,0,0,0,3.59,2.07L699.35,551A2.39,2.39,0,0,0,699.35,546.89Z" class="cls-6"/></svg>